<?xml version="1.0" encoding="UTF-8"?><svg xmlns="http://www.w3.org/2000/svg" viewBox="0 0 147.55 146.12"><defs><style>.cls-1{fill:#fff;}.cls-2{fill:#690f93;}</style></defs><g id="logo_original_size"><rect class="cls-2" y="19.29" width="142.51" height="126.83" rx="23.29" ry="23.29"/></g><g id="logo_small"><rect class="cls-2" y="19.29" width="142.51" height="126.83" rx="23.29" ry="23.29"/></g><g id="Layer_1"><path class="cls-1" d="M51.31,114.61c-.84,1.08-1.65,2.12-2.5,3.22-.94-.41-1.81-.96-2.76-1.17-1.14-.25-2.35-.32-3.51-.22-.43.03-.8.74-1.2,1.14.4.36.75.9,1.21,1.03,1.08.32,2.23.4,3.32.67,1.16.29,2.35.55,3.42,1.05,1.92.91,2.69,2.59,2.61,4.67-.08,2.12-.9,3.86-2.87,4.79-3.14,1.48-6.36,1.24-9.52.11-1.23-.44-2.35-1.19-3.66-1.87.98-1.3,1.82-2.42,2.48-3.3,1.96.58,3.71,1.2,5.51,1.57.74.15,1.63-.16,2.39-.45.33-.13.7-.73.67-1.08-.03-.34-.5-.83-.86-.93-1.19-.32-2.41-.5-3.62-.72-1.8-.32-3.49-.83-4.84-2.17-2.02-2-1.6-6.14.8-7.65,3.6-2.27,9.48-1.83,12.69.94.07.06.11.16.26.36Z"/><path class="cls-1" d="M124.62,106.3h5.56c-.29,5.71-.57,11.37-.86,17.16-1.24,0-2.36.04-3.48-.04-.19-.01-.48-.49-.5-.77-.12-1.36-.18-2.72-.25-4.09-.2-3.96-.39-7.92-.57-11.87,0-.09.04-.19.09-.39Z"/><path class="cls-1" d="M130.09,127.9c0,1.42-1.28,2.68-2.78,2.72-1.39.04-2.71-1.24-2.73-2.64-.02-1.52,1.18-2.73,2.7-2.73,1.51,0,2.81,1.22,2.81,2.65Z"/><path class="cls-1" d="M94.88,57.96c-.02-5.64-2.93-9.91-8.17-11.98-.7-.28-.94-.64-.86-1.33.03-.26,0-.53,0-.8,0-1.75-.87-2.9-2.19-2.89-1.35,0-2.19,1.1-2.21,2.87,0,.03,0,.07,0,.1.14.95-.24,1.26-1.22,1.25-5.4-.04-10.8-.02-16.2-.01q-1.99,0-2.15-2.01c0-.07,0-.13-.02-.2-.14-1.08-1.13-1.99-2.16-1.99-1.07,0-2.04.86-2.17,1.98-.06.53-.06,1.07-.02,1.6.06.71-.22,1.03-.93,1.27-5.31,1.76-8.6,6.36-8.6,11.95,0,4.57,0,9.13,0,13.7h.02c0,4.67-.06,9.33.01,14,.11,6.79,5.57,12.08,12.36,12.09,7.23,0,14.47,0,21.7,0,7.36,0,12.74-5.26,12.77-12.59.04-9,.03-18,0-27ZM92.21,84.73c0,5.93-4.23,10.14-10.15,10.14-7.16,0-14.33,0-21.49,0-5.33,0-9.63-3.9-9.75-9.21-.16-6.79-.06-13.59-.07-20.39,0-.23.07-.45.12-.75h41.25c.03.47.09.89.09,1.31,0,6.3.02,12.59,0,18.89ZM89.85,60.09c-12.63.03-25.25,0-37.88.04-.96,0-1.25-.26-1.25-1.22,0-2.37.19-4.65,1.61-6.68,1.26-1.8,2.89-3.07,5.12-3.89.05.7.05,1.19.13,1.68.19,1.22,1.11,1.99,2.27,1.93,1.12-.06,1.94-.89,2.05-2.07q.19-1.98,2.17-1.98c5.23,0,10.46,0,15.69,0,1.83,0,1.68-.15,1.7,1.65.02,1.39.72,2.25,1.92,2.38,1.17.13,2.1-.51,2.36-1.67.11-.48.12-.98.2-1.63.36.14.69.24.98.4,3.39,1.86,5.13,4.77,5.25,8.6.09,3.06.35,2.46-2.32,2.47Z"/><path class="cls-1" d="M97.34,117.72c-1.79-5.55-8.97-7.88-13.29-4.41-.16.13-.33.23-.59.42,0-.47,0-.81,0-1.14,0-2.1.02-4.2-.02-6.3,0-.28-.27-.8-.44-.81-1.48-.06-2.97-.04-4.46-.04v24.88c1.51,0,2.93.02,4.36-.02.19,0,.44-.31.53-.53.1-.25.05-.56.08-.96.2.13.3.21.4.28,3.61,2.49,8.18,2.26,11.27-.81,3-2.98,3.41-6.69,2.17-10.56ZM88.15,126.27c-3.07.03-4.87-1.82-4.89-5.02-.02-3,1.94-5.08,4.8-5.1,3-.02,4.98,2.05,4.96,5.17-.02,2.92-1.99,4.92-4.87,4.95Z"/><path class="cls-1" d="M31.44,112.13c-.83.03-1.67,0-2.5,0q-1.57,0-1.76,1.61c-2.97-2.81-8.45-2.32-11.09-.07-2.68,2.29-3.47,5.26-3.26,8.61.4,6.29,6.54,10.16,12.3,7.75.72-.3,1.37-.76,2.08-1.15.06.48.11.93.17,1.43,1.49,0,2.89.03,4.28-.04.21-.01.58-.5.58-.76.03-5.53.02-11.06.04-16.59,0-.62-.24-.82-.83-.8ZM22.55,126.28c-2.95,0-4.91-2.06-4.88-5.12.02-3.02,1.97-5.01,4.89-5.01,2.96,0,4.9,2.07,4.89,5.22-.01,3.07-1.86,4.91-4.91,4.91Z"/><path class="cls-1" d="M110.86,111.84c-5.34-.06-9.82,4.21-9.84,9.36-.02,5.28,4.3,9.49,9.77,9.53,5.39.03,9.87-4.17,9.92-9.3.05-5.28-4.31-9.53-9.84-9.59ZM110.75,126.38c-2.67,0-4.82-2.24-4.83-5.06,0-2.74,2.14-5.02,4.75-5.04,2.9-.02,5.01,2.11,5.01,5.05,0,2.87-2.11,5.04-4.93,5.05Z"/><path class="cls-1" d="M64.35,111.85c-5.27.13-9.59,4.51-9.48,9.63.11,5.12,4.62,9.36,9.86,9.25,5.71-.12,9.92-4.32,9.81-9.78-.11-5.14-4.68-9.24-10.18-9.11ZM64.59,126.37c-2.76-.05-4.84-2.26-4.79-5.09.05-2.9,2.21-5.06,4.99-5,2.74.06,4.86,2.3,4.81,5.09-.05,2.86-2.25,5.06-5.01,5.01Z"/><rect class="cls-1" x="104.58" y="106.75" width="11.64" height="2.76"/></g><g id="people"><path class="cls-1" d="M62.76,75.62c-2.36-2.18-2.04-5.46-.2-7.24,1.87-1.81,4.79-1.87,6.74-.17,1.93,1.68,2.43,5.11.2,7.24.78.51,1.57,1.03,2.34,1.54.56-.38,1.16-.8,1.77-1.21-2.15-2.44-1.26-5.7.69-7.14,1.98-1.46,4.71-1.23,6.37.64,1.63,1.84,1.71,4.67-.2,6.56.01.02.02.06.05.08,2.48,1.3,3.72,3.37,3.78,6.15.07,3.49-2.13,6.43-5.47,7.33-.57.15-1.18.24-1.77.24-4.42.02-8.84,0-13.26.02-.23,0-.48.07-.68.18-.71.39-1.4.82-2.09,1.24-.42.26-.87.34-1.34.18-.61-.2-.98-.71-.98-1.36,0-2.58-.06-5.16.02-7.73.09-2.88,1.31-5.13,3.95-6.49.03-.01.05-.03.08-.05ZM61.03,88.54c.5-.33.93-.64,1.4-.89.28-.15.62-.27.93-.27,4.16-.01,8.33,0,12.49,0,.68,0,1.36.03,2.03-.07,3.22-.48,5.18-4.2,3.79-7.16-.89-1.9-2.46-2.88-4.52-2.91-1.97-.03-3.61.71-4.61,2.53-.16.29-.38.55-.74.54-.36,0-.6-.23-.77-.55-1.67-3.17-6.08-3.81-8.56-1.22-.97,1.01-1.47,2.23-1.48,3.63-.01,1.88,0,3.75,0,5.63,0,.23.03.46.06.74ZM66.07,69.19c-1.53,0-2.77,1.22-2.78,2.76,0,1.5,1.2,2.71,2.69,2.72,1.53,0,2.77-1.2,2.78-2.72.01-1.51-1.2-2.75-2.7-2.76ZM74.53,72.56c.03,1.46,1.2,2.6,2.63,2.57,1.44-.03,2.59-1.24,2.55-2.69-.04-1.42-1.23-2.57-2.63-2.54-1.42.03-2.58,1.25-2.55,2.66Z"/></g></svg>